<svg class="animated" id="freepik_stories-cherry-pie-slice" xmlns="http://www.w3.org/2000/svg" viewBox="0 0 500 500" version="1.1" xmlns:xlink="http://www.w3.org/1999/xlink" xmlns:svgjs="http://svgjs.com/svgjs"><style>svg#freepik_stories-cherry-pie-slice:not(.animated) .animable {opacity: 0;}svg#freepik_stories-cherry-pie-slice.animated #freepik--background-simple--inject-221 {animation: 1s 1 forwards cubic-bezier(.36,-0.01,.5,1.38) zoomOut;animation-delay: 0s;}svg#freepik_stories-cherry-pie-slice.animated #freepik--Glass--inject-221 {animation: 1s 1 forwards cubic-bezier(.36,-0.01,.5,1.38) fadeIn;animation-delay: 0s;}svg#freepik_stories-cherry-pie-slice.animated #freepik--Cherries--inject-221 {animation: 1s 1 forwards cubic-bezier(.36,-0.01,.5,1.38) slideRight;animation-delay: 0s;}svg#freepik_stories-cherry-pie-slice.animated #freepik--Plate--inject-221 {animation: 1s 1 forwards cubic-bezier(.36,-0.01,.5,1.38) slideDown;animation-delay: 0s;}svg#freepik_stories-cherry-pie-slice.animated #freepik--Fork--inject-221 {animation: 1s 1 forwards cubic-bezier(.36,-0.01,.5,1.38) slideLeft;animation-delay: 0s;}svg#freepik_stories-cherry-pie-slice.animated #freepik--pie-slice--inject-221 {animation: 1s 1 forwards cubic-bezier(.36,-0.01,.5,1.38) slideLeft;animation-delay: 0s;}            @keyframes zoomOut {                0% {                    opacity: 0;                    transform: scale(1.5);                }                100% {                    opacity: 1;                    transform: scale(1);                }            }                    @keyframes fadeIn {                0% {                    opacity: 0;                }                100% {                    opacity: 1;                }            }                    @keyframes slideRight {                0% {                    opacity: 0;                    transform: translateX(30px);                }                100% {                    opacity: 1;                    transform: translateX(0);                }            }                    @keyframes slideDown {                0% {                    opacity: 0;                    transform: translateY(-30px);                }                100% {                    opacity: 1;                    transform: translateY(0);                }            }                    @keyframes slideLeft {                0% {                    opacity: 0;                    transform: translateX(-30px);                }                100% {                    opacity: 1;                    transform: translateX(0);                }            }        </style><g id="freepik--background-simple--inject-221" class="animable" style="transform-origin: 248.174px 262.544px;"><path d="M475.74,203.77c11.61-10.93,9.19-32.5,7.16-46.65-2.62-18.31-9.52-36-21.06-50.56A70.77,70.77,0,0,0,442.37,90C401,65.17,352.2,53.48,304.5,49c-32.73-3.1-58-.61-87.81,13,0,0-91.75,32.5-143.26,74.27s-45.27,56-19.5,39.82C39.74,189.59,19.16,207,13.57,226.74,1.74,268.5,48.37,450.16,129.11,470.35S397.78,465.48,443,409.79s34.81-165.65,13.92-208.11S463.9,214.9,475.74,203.77Z" style="fill: #CA8A5F; transform-origin: 248.174px 262.544px;" id="el74r71w4byve" class="animable"></path><g id="el473bhcb2uj5"><path d="M475.74,203.77c11.61-10.93,9.19-32.5,7.16-46.65-2.62-18.31-9.52-36-21.06-50.56A70.77,70.77,0,0,0,442.37,90C401,65.17,352.2,53.48,304.5,49c-32.73-3.1-58-.61-87.81,13,0,0-91.75,32.5-143.26,74.27s-45.27,56-19.5,39.82C39.74,189.59,19.16,207,13.57,226.74,1.74,268.5,48.37,450.16,129.11,470.35S397.78,465.48,443,409.79s34.81-165.65,13.92-208.11S463.9,214.9,475.74,203.77Z" style="fill: rgb(255, 255, 255); opacity: 0.7; transform-origin: 248.174px 262.544px;" class="animable" id="el0exdt6knc8h"></path></g></g><g id="freepik--Glass--inject-221" class="animable" style="transform-origin: 130.63px 117.915px;"><ellipse cx="133.35" cy="178.65" rx="81.5" ry="46.91" style="fill: rgb(38, 50, 56); stroke: rgb(38, 50, 56); stroke-miterlimit: 10; transform-origin: 133.35px 178.65px;" id="elytl5692x3p" class="animable"></ellipse><path d="M130.63,78.19c-47.34,0-85.71-15.2-85.71-34l3.65,133.42c0,18,36.74,42.22,82.06,42.22s82.05-24.26,82.05-42.22l3.66-133.42C216.34,63,178,78.19,130.63,78.19Z" style="fill: none; stroke: rgb(38, 50, 56); stroke-miterlimit: 10; transform-origin: 130.63px 132.01px;" id="elr5ix3zgbrnk" class="animable"></path><path d="M210.75,100.35c-.45,17.39-36.14,31.43-80.12,31.43s-79.68-14-80.12-31.43h-.13l2.06,75.15c0,17.11,35,40.22,78.19,40.22s78.18-23.11,78.18-40.22l2.06-75.15Z" style="fill: rgb(255, 255, 255); stroke: rgb(38, 50, 56); stroke-miterlimit: 10; transform-origin: 130.625px 158.035px;" id="elhuywwkicvwu" class="animable"></path><ellipse cx="130.63" cy="100.03" rx="80.14" ry="31.75" style="fill: rgb(255, 255, 255); stroke: rgb(38, 50, 56); stroke-miterlimit: 10; transform-origin: 130.63px 100.03px;" id="el0pxmus48ptp" class="animable"></ellipse><ellipse cx="130.63" cy="44.23" rx="85.71" ry="33.96" style="fill: none; stroke: rgb(38, 50, 56); stroke-miterlimit: 10; transform-origin: 130.63px 44.23px;" id="el6eamaow7wts" class="animable"></ellipse><ellipse cx="130.63" cy="44.23" rx="80.7" ry="31.98" style="fill: none; stroke: rgb(38, 50, 56); stroke-miterlimit: 10; transform-origin: 130.63px 44.23px;" id="elhl22mhzbk2" class="animable"></ellipse><line x1="66.61" y1="197.86" x2="65.31" y2="178.33" style="fill: none; stroke: rgb(38, 50, 56); stroke-miterlimit: 10; transform-origin: 65.96px 188.095px;" id="elz93xfcf2oca" class="animable"></line><line x1="85.71" y1="185.27" x2="85.71" y2="209.58" style="fill: none; stroke: rgb(38, 50, 56); stroke-miterlimit: 10; transform-origin: 85.71px 197.425px;" id="elm1rmozdpv2" class="animable"></line><line x1="85.71" y1="179.63" x2="85.71" y2="171.38" style="fill: none; stroke: rgb(38, 50, 56); stroke-miterlimit: 10; transform-origin: 85.71px 175.505px;" id="elb2wdwxg6gwn" class="animable"></line></g><g id="freepik--Cherries--inject-221" class="animable" style="transform-origin: 77.182px 428.303px;"><path d="M117.73,428.27c0-6.78-9.69-12.27-21.64-12.27s-21.64,5.49-21.64,12.27,9.69,12.26,21.64,12.26c0,0,3.78,8.79,2.53,12.1-.7,1.89-5.05,4.25-8.68,5.95-3.82-3.48-10.62-5.79-18.38-5.79-12,0-21.64,5.49-21.64,12.26s9.69,12.27,21.64,12.27,21.64-5.49,21.64-12.27a7.86,7.86,0,0,0-1.67-4.73l.41,0,7.78-6.35s1.64,1,2-.21-1-1.22-1-2c0-.66-1.94-8.16-2.74-11.21C109.06,439.93,117.73,434.67,117.73,428.27Z" style="fill: rgb(38, 50, 56); stroke: rgb(38, 50, 56); stroke-miterlimit: 10; transform-origin: 83.825px 446.66px;" id="elncjj4voee9" class="animable"></path><path d="M77.63,397s-4.19,2.61-6.51,9.4,1.3,16.47,5.64,20.52,11,8.81,19.22,9a20.21,20.21,0,0,0,17.63-10.41c2.75-5.2,2-14.45-.29-20.23s-11.56-10.84-17.34-12S85.29,391.54,77.63,397Z" style="fill: #CA8A5F; stroke: rgb(38, 50, 56); stroke-miterlimit: 10; transform-origin: 92.8851px 414.214px;" id="elvu34oc9gel" class="animable"></path><path d="M102.34,417.27s-3.47,2.89-2.46,5.05,5.2-2.6,5.2-4.62S103.35,416.11,102.34,417.27Z" style="fill: rgb(255, 255, 255); transform-origin: 102.388px 419.581px;" id="elxkvzllov3l" class="animable"></path><path d="M91.21,398.19s3,.87,3.76,3-2,5.06-.44,5.5,5.5-2.75,5.21-6.8-4.34-6.07-6.07-6.07-5.78-1-8.53.15-7.8,2.6-10.11,6.65,6.06,1.15,7.22.43S86.15,394.72,91.21,398.19Z" style="fill: rgb(255, 255, 255); transform-origin: 87.192px 400.074px;" id="elinzpdj1wwl8" class="animable"></path><path d="M77.92,429.69s-9.25-3.9-14.74-5.92-14.31.72-19.66,5.49S36.15,441,36.73,450.79,46,467.7,49.16,468.86s8.67,2.6,8.67,2.6,6.65,2.16,10.69,1.73,11-4.62,16.33-12.43,6.22-17.92,4.19-22.83S79.07,429.4,77.92,429.69Z" style="fill: #CA8A5F; stroke: rgb(38, 50, 56); stroke-miterlimit: 10; transform-origin: 63.338px 448.172px;" id="elk0gehlem8rr" class="animable"></path><path d="M56.53,382.73a11.69,11.69,0,0,1-2-1.45c-.72-.72-1.15-1.59-1.73-1.44s-.87.43-1.44,0-.58-.73-1.74-.44-2.89-.43-3.76,1.3-.14,3,1.45,4.2a8.75,8.75,0,0,0,2.89,1.44,1.9,1.9,0,0,0,1.3.43,7.09,7.09,0,0,0,2.31-.72,2,2,0,0,0,.58,1.3,4.54,4.54,0,0,0,2.17.72s4.33,5.21,6.21,15.47,4.05,24.85,4.05,26.15a22.66,22.66,0,0,0,.29,3l1.44.58,1.3-.44s-2.89-17.05-3.75-23-3.33-15.18-4.77-18.07-2.32-4.62-2.75-5.78-1.44-.87-.43-1.15,4.19.28,4.19.28,5.35.29,12.86,4.77,12.43,13.59,12.72,14.31,0,2.75,1.59,2.75a2.73,2.73,0,0,0,2.74-2.75c-.14-1.3,1.16-.43-.14-1.3s-2.46-1.16-2.89-1.59A71,71,0,0,0,78.93,390.1C72.86,384.9,61,382.87,61,382.87S58,381.72,56.53,382.73Z" style="fill: rgb(38, 50, 56); stroke: rgb(38, 50, 56); stroke-miterlimit: 10; transform-origin: 69.0909px 406.277px;" id="el3c8wsih0vce" class="animable"></path><path d="M59.85,424.78s-1.59-.58-3.18,2.6-.43,5.06,1,6.65-6.5-.29-9.1-2.6.87-4.63,4.33-6.07S59.13,423.33,59.85,424.78Z" style="fill: rgb(255, 255, 255); transform-origin: 53.7563px 429.281px;" id="elqeprel3laad" class="animable"></path><path d="M77.77,442.55s.15,2.89.87,3.62,4.19.14,4.19-3S79.94,438.8,77.77,442.55Z" style="fill: rgb(255, 255, 255); transform-origin: 80.3px 443.341px;" id="elh1jreqg87bq" class="animable"></path><path d="M69.82,432.87s5.06.15,5.06-1.59-3.61-3.32-4.48-2.6S69.53,431.28,69.82,432.87Z" style="fill: rgb(255, 255, 255); transform-origin: 72.2633px 430.687px;" id="eljjui3adqfi" class="animable"></path><path d="M72.42,452.82s-1.3-1.59-2.6-.73-2.74,2.31-1.3,4.77,2.89,1.3,3.9.43,1.16,1.31,2.17.58.72-.86,1.59-3.75-1.88-2.17-2.31-1.59A12.82,12.82,0,0,1,72.42,454Z" style="fill: rgb(255, 255, 255); transform-origin: 72.1345px 455.087px;" id="el13obzjv7rgts" class="animable"></path><path d="M84.71,407.73a4.55,4.55,0,0,0,3.61,1.73,4.85,4.85,0,0,0,4.05-2s-4.48,1.15-6.36-.87S84.27,406.14,84.71,407.73Z" style="fill: rgb(255, 255, 255); transform-origin: 88.4008px 407.548px;" id="eloewzk9kl1s9" class="animable"></path></g><g id="freepik--Plate--inject-221" class="animable" style="transform-origin: 276px 304.11px;"><ellipse cx="275.5" cy="310.64" rx="195.89" ry="131.7" style="fill: rgb(38, 50, 56); stroke: rgb(38, 50, 56); stroke-miterlimit: 10; transform-origin: 275.5px 310.64px;" id="el1fojgx3ivd7" class="animable"></ellipse><ellipse cx="276" cy="297.58" rx="199.84" ry="131.7" style="fill: rgb(255, 255, 255); stroke: rgb(38, 50, 56); stroke-miterlimit: 10; transform-origin: 276px 297.58px;" id="elvszsxb8i2sd" class="animable"></ellipse><path d="M151.11,392.14C107.1,369,79,333.8,79,294.43a83,83,0,0,1,1.57-16" style="fill: none; stroke: rgb(38, 50, 56); stroke-miterlimit: 10; transform-origin: 115.055px 335.285px;" id="elrexw2noi2c" class="animable"></path><path d="M448.06,356C414.38,394.64,350,420.77,276,420.77c-43.84,0-84.33-9.18-117.06-24.72" style="fill: none; stroke: rgb(38, 50, 56); stroke-miterlimit: 10; transform-origin: 303.5px 388.385px;" id="el7kx2ckmdv3p" class="animable"></path><path d="M464.12,332a103.58,103.58,0,0,1-8.51,14.38" style="fill: none; stroke: rgb(38, 50, 56); stroke-miterlimit: 10; transform-origin: 459.865px 339.19px;" id="elrg4n7ta7ja" class="animable"></path></g><g id="freepik--Fork--inject-221" class="animable" style="transform-origin: 406.255px 303.158px;"><path d="M428.89,366.94H409.78c.53,6.46.85,10.55.85,10.55s3.62,68.49,6.27,77.41c1.44,4.84,2.53,8.9,5,12.22,2.08,3.48,5.25,6.24,11.19,8.3,11.09,3.86,18.81-4.1,18.81-17.36S437.66,398,437.66,398,433.53,383.82,428.89,366.94Z" style="fill: rgb(38, 50, 56); stroke: rgb(38, 50, 56); stroke-miterlimit: 10; transform-origin: 430.84px 421.668px;" id="el27v7ql4b9yk" class="animable"></path><path d="M361.59,140.56s4.1,68.25,6.27,83,1.69,24.36,9.16,29.18,19.06,7.48,22,15.19,9.65,93.1,9.65,93.1,3.62,68.49,6.27,77.41,4.1,15.2,15.19,19.05,18.81-4.1,18.81-17.36-14.23-60-14.23-60-17.6-60.54-21-80.31-4.1-32.56-3.37-36.42,11.33-15.67,15.43-22.43,3.62-18.57,2.17-24.11-12.3-41-17.6-55.47-12.06-29.91-12.06-29.91-.73,0,1.93,10.37,13.5,59.81,13.26,61.5-3.13,3.86-5.3,2.17-20.5-70.66-21-71.38-1.2-1-.24,5.54,14,73.32,14,75.49-1.93,5.55-6,2.41-18.33-78.62-18.81-79.59-2.17-2.17-1.93,2.17,10.13,66.81,10.13,69.46-3.62,4.34-5.31,1.69-15.67-70.42-15.67-70.42S363,137.42,361.59,140.56Z" style="fill: rgb(207, 207, 207); stroke: rgb(38, 50, 56); stroke-miterlimit: 10; transform-origin: 405.265px 294.971px;" id="elgzz530avxya" class="animable"></path><path d="M360.61,139.09s4.1,68.25,6.27,83,1.69,24.36,9.17,29.18,19.05,7.48,21.94,15.19,9.65,93.1,9.65,93.1,3.62,68.49,6.27,77.41S418,452.13,429.1,456s18.81-4.1,18.81-17.36-14.23-60.05-14.23-60.05-17.6-60.53-21-80.31-4.1-32.56-3.37-36.42,11.33-15.67,15.43-22.43,3.62-18.57,2.17-24.11-12.3-41-17.6-55.47-12.06-29.91-12.06-29.91-.73,0,1.93,10.37,13.5,59.81,13.26,61.5-3.13,3.86-5.3,2.17-20.5-70.66-21-71.38-1.2-1-.24,5.54,14,73.32,14,75.49-1.93,5.55-6,2.41-18.33-78.62-18.81-79.59-2.17-2.17-1.93,2.17,10.13,66.81,10.13,69.46-3.62,4.34-5.31,1.69-15.67-70.42-15.67-70.42S362.06,136,360.61,139.09Z" style="fill: rgb(207, 207, 207); stroke: rgb(38, 50, 56); stroke-miterlimit: 10; transform-origin: 404.26px 293.46px;" id="elkgg6vau51h" class="animable"></path><path d="M375.08,136.43c-.48-1-2.17-2.17-1.93,2.17s10.13,66.81,10.13,69.46-3.62,4.34-5.31,1.69-15.67-70.42-15.67-70.42-.24-3.38-1.69-.24c0,0,4.1,68.25,6.27,83,.07.45.12.87.18,1.31a159.74,159.74,0,0,1,25.81-9.06C387.84,202.55,375.53,137.33,375.08,136.43Z" style="fill: rgb(38, 50, 56); stroke: rgb(38, 50, 56); stroke-miterlimit: 10; transform-origin: 376.74px 179.447px;" id="el65zj1b3icoh" class="animable"></path><path d="M425.65,210.78c-3.38-11.46-11.84-38.71-16.32-50.95-5.31-14.47-12.06-29.91-12.06-29.91s-.73,0,1.93,10.37,13.5,59.81,13.26,61.5-3.13,3.86-5.3,2.17-20.5-70.66-21-71.38-1.2-1-.24,5.54c.92,6.17,12.66,66.47,13.89,74.62A102.89,102.89,0,0,1,425.65,210.78Z" style="fill: rgb(38, 50, 56); stroke: rgb(38, 50, 56); stroke-miterlimit: 10; transform-origin: 405.546px 171.33px;" id="eldxj6via8kki" class="animable"></path><g id="el58pfx8yi3r9"><ellipse cx="398.31" cy="234.68" rx="28.22" ry="17.51" style="fill: rgb(255, 255, 255); opacity: 0.45; transform-origin: 398.31px 234.68px; transform: rotate(-13.69deg);" class="animable" id="elk3mqzyxtwk"></ellipse></g><g id="el6hkhanhkucd"><ellipse cx="398.31" cy="234.68" rx="24.91" ry="15.46" style="fill: rgb(255, 255, 255); opacity: 0.75; transform-origin: 398.31px 234.68px; transform: rotate(-13.69deg);" class="animable" id="el830cpvxph8l"></ellipse></g></g><g id="freepik--pie-slice--inject-221" class="animable" style="transform-origin: 259.201px 261.65px;"><path d="M155.16,292.39s6.27,5.81,11.63,8.5,10.63,4.71,10.63,4.71-6.73,18.82,3.4,24.72,22.65,5,22.65,5,8.94,9.4,16.55,8.95,18.78-7.16,20.57-7.6,3.13,1.79,7.16,1.34,13-3.58,15.65-13c0,0-1.78,24.48,9.85,32.59s24.14,3.64,24.14,3.64,13,12.07,23.71,13.41S337,373.63,337,373.63s9.17,3.29,15.87,1.95,9.4-3.58,9.4-3.58,21,6.71,30-2.24,5.37-28.62,1.79-34.44-3.58-5.81-2.68-16.54.89-19.68-9.39-28.18-231.18-12.43-231.18-12.43S151.59,287.91,155.16,292.39Z" style="fill: rgb(38, 50, 56); stroke: rgb(38, 50, 56); stroke-miterlimit: 10; transform-origin: 274.359px 327.035px;" id="elx9hckoldpjb" class="animable"></path><path d="M312.11,162a28.9,28.9,0,0,1,.59,6.07c0,3.58-2.48,7.17-2.48,7.17L323.46,194l11,20.14s9.38,1.38,12.14,7.73-1.38,16-1.38,16l3,6.07,21.25,35s11.86.55,15.17,12.14a24,24,0,0,1-3.31,20.14v16.55s6.9.56,8.28,5.52-5.52,9.93-5.52,9.93l5,5.25s2.48,5,1.1,12.41-6.34,11.87-16,13.25-15.73-7.45-15.73-7.45-11.86,6.62-21.52,6.89-14.35-3.86-14.35-3.86-10.48,4.14-19,1.38-11-15.45-11-15.45a32.94,32.94,0,0,1-19.31,1.93c-10.76-2.21-14.35-7.72-15.45-14.07s3.31-12.14,3.31-12.14l-4.14-.55A22.45,22.45,0,0,1,239,330s-9.66,12.14-23.73,12.14-14.63-12.69-14.63-12.69-12.13,5.24-19.86.83-14.9-20.14-3-29a30.36,30.36,0,0,0-9.1-3.87,16.89,16.89,0,0,1-6.39-2.26s-9.06-8.77-11.54-17.05S139.43,252,138.88,246.44s2.21-7.72,5.52-6.62l5,1.66s-9.94-20.42-6.35-25.11S167.58,199,181.37,194.3c0,0,30.35-8,37-11.87s33.39-13.24,38.35-13.24,19.32-10.76,29.8-13S309.86,155.68,312.11,162Z" style="fill: #CA8A5F; stroke: rgb(38, 50, 56); stroke-miterlimit: 10; transform-origin: 264.709px 264.766px;" id="elra6roxopizq" class="animable"></path><path d="M231.1,222.49s-1.3,1.82.26,5.45a57.23,57.23,0,0,0,3.12,6.24s-1.3,3.11-.26,5.19l1,2.07a17.05,17.05,0,0,0,.52,7.79c1.3,4.16,2.08,6.23,2.08,6.23l-.52,3.38a13.34,13.34,0,0,0-5.71,2.85c-2.08,2.08-4.67,4.16-4.67,4.16s-6.49-.26-8.57,1a13.13,13.13,0,0,0-3.12,2.59,2,2,0,0,0-1.81,2.34c.26,2.08,1.55,6.23,3.63,7.53s13,1.3,16.1,2.59,4.15,1.82,6,2.08,3.37-2.34,3.37-2.34,4.16,3.64,5.45,4.16a17.08,17.08,0,0,0,3.38.78s1.82,4.15,3.12,6.49,4.15,5.19,6.23,3.89,2.85-6.23,2.85-6.23,4.93,3.38,7.79,2.6a9.43,9.43,0,0,0,4.41-2.6l3.12.52s5.45.52,7.53,0a7.54,7.54,0,0,0,3.63-2.86h4.16s5.19,6.49,9.86,6.49,9.09-3.11,9.09-3.11a31.21,31.21,0,0,0,10.64.52c5.45-.78,7.79-2.86,7.79-2.86s5.71.52,8.05-1a46.37,46.37,0,0,1,4.41-2.59,8.62,8.62,0,0,0,5.45.26c3.38-.78,6.23-3.12,7-3.12a7.15,7.15,0,0,1,4.42,2.34c1.81,1.82,4.93,2.08,7.78-.26s6-4.67,5.2-9.87-.78-9.08-2.08-12.46-2.08-4.67-2.08-5.71-1.82-5.71-3.89-10.12-1.82-5.72-3.38-7.27-1.55-1.56-3.63-1.82a12.16,12.16,0,0,0-6.75.78c-2.08,1-3.9,2.33-4.93,2.85s-3.64.52-4.42.52-4.67.26-4.67.26-1-1-3.12.26a6.07,6.07,0,0,0-2.59,3.12l-4.42,2.59a6.77,6.77,0,0,0-3.37,1c-1.56,1-2.86,1.56-3.38,2.34a3.45,3.45,0,0,1-2.33,1.3c-1,.26-2.86.26-3.9.78s-2.59,1.55-2.59,1.55L310,257.54s.52-5.19-.78-7.53-2.85-4.93-2.85-4.93.52-3.38,0-4.93a16.24,16.24,0,0,0-1.3-2.86,7.05,7.05,0,0,0,.26-6.23l-1.56-3.12a27.28,27.28,0,0,0-1.82-4.15c-1-1.82-1-.1-3.24-3.3s-11-5.27-15.19-5.53-22.58,4.42-23.88,4.42-14.54,1.3-17.4,1.3S232.66,219.38,231.1,222.49Z" style="fill: rgb(255, 255, 255); stroke: rgb(38, 50, 56); stroke-miterlimit: 10; transform-origin: 293.698px 256.118px;" id="el56odh93rx7a" class="animable"></path><path d="M309.24,260.66s2.34.77,2.86,4.15a24.42,24.42,0,0,1-.26,7.27s2.34.52,2.59,3.89-2.59,6.75-2.59,6.75a4.72,4.72,0,0,1,2.08,4.68c-.52,3.11-.78,4.41-.78,4.41" style="fill: none; stroke: rgb(38, 50, 56); stroke-miterlimit: 10; transform-origin: 311.843px 276.235px;" id="eli65f2kre87o" class="animable"></path><path d="M251.87,264a4.34,4.34,0,0,1,5.19-1.3,19,19,0,0,1,4.67,2.34s3.64-1.56,5.46-1l1.81.52" style="fill: none; stroke: rgb(38, 50, 56); stroke-miterlimit: 10; transform-origin: 260.435px 263.683px;" id="eljc1q2fv6jn" class="animable"></path><path d="M296.83,267.26a9.81,9.81,0,0,0-3.94-.37,13.47,13.47,0,0,0-5.45,2.33s-2.6-2.07-4.68-.52-3.63,2.86-3.63,2.86" style="fill: none; stroke: rgb(38, 50, 56); stroke-miterlimit: 10; transform-origin: 287.98px 269.196px;" id="elfh5gvujdz" class="animable"></path><path d="M300.68,268.7s-.9-.44-2.17-.9" style="fill: none; stroke: rgb(38, 50, 56); stroke-miterlimit: 10; transform-origin: 299.595px 268.25px;" id="eljp23qgbz8x" class="animable"></path><path d="M301.45,253.39a7.83,7.83,0,0,0-4.93-1.56,10,10,0,0,0-4.41,1.56s-2.6-1.82-4.41-1-3.64,1.82-3.64,1.82" style="fill: none; stroke: rgb(38, 50, 56); stroke-miterlimit: 10; transform-origin: 292.755px 253.018px;" id="el44o64784vn6" class="animable"></path><path d="M272.35,235.39a7.24,7.24,0,0,1,1.59.86,5.59,5.59,0,0,1,4.15-2.07,6.87,6.87,0,0,1,4.15,1.29s1.82-2.59,3.9-2.07l2.07.52" style="fill: none; stroke: rgb(38, 50, 56); stroke-miterlimit: 10; transform-origin: 280.28px 234.79px;" id="elztne7dzz7q" class="animable"></path><path d="M264.85,236.25s2.6-2.07,5.19-1.56" style="fill: none; stroke: rgb(38, 50, 56); stroke-miterlimit: 10; transform-origin: 267.445px 235.43px;" id="ellmyipzhlpg" class="animable"></path><path d="M345.33,277s-2.6,3.38-1.3,6" style="fill: none; stroke: rgb(38, 50, 56); stroke-miterlimit: 10; transform-origin: 344.498px 280px;" id="eln7qm6bvpmd" class="animable"></path><path d="M331.57,281.42a5.67,5.67,0,0,0-.78,4.94" style="fill: none; stroke: rgb(38, 50, 56); stroke-miterlimit: 10; transform-origin: 331.053px 283.89px;" id="elfa9rer5bag" class="animable"></path><path d="M320.67,283.24s-2.86,3.64-1,6" style="fill: none; stroke: rgb(38, 50, 56); stroke-miterlimit: 10; transform-origin: 319.856px 286.24px;" id="elm9bu6z7kls" class="animable"></path><path d="M153.44,225.88s17.09,3.16,21.84,6,8.55,1.27,10.13-.32L187,230a20.89,20.89,0,0,0,7,1.27,6.2,6.2,0,0,0,5.38-3.17s2.53,2.53,6.33.32,4.43-3.8,4.43-3.8,2.53,1.58,4.75.95a19.36,19.36,0,0,0,5.06-2.85s5.07,3.8,8.23,3.48a18.05,18.05,0,0,0,5.7-1.58s6,3.16,9.81,2.85a15.58,15.58,0,0,0,6.65-2.22s6.65,2.53,10.76,1.27a21.88,21.88,0,0,0,7.28-4.12s5.07,1.9,7.91.32a61.45,61.45,0,0,1,6-2.85s5.38,3.17,6.65,2.22l3.79-2.85s3.17,2.85,6,1.26a24.24,24.24,0,0,0,5.38-4.43s6,1.59,7.6,0a18.52,18.52,0,0,0,2.53-3.16s.32,1.58,5.7.95l5.38-.64s4.75,4.12,7.91,5.07,6-3.17,5.07-6-5.7-7.28-5.7-7.28.63-2.21-1.27-6.64a23,23,0,0,0-5.06-7.28s-3.17-10.13-5.7-13.3-12.35-4.11-17.09-2.53-7.92,2.85-7.92,2.85-21.2,0-24.69,1.9a68.57,68.57,0,0,1-6.64,3.16s-5.39.64-6.65,1-6.4-.92-6.4-.92A26.81,26.81,0,0,0,239.85,187c-5.69,3.47-10.13,5.69-10.13,5.69s-4.43.63-6,2.21-4.75,2.22-4.75,2.22-16.46,0-19-.32-8.81,1.79-16.27,1.53-20.13,2.91-24.56,6.7-11.4,6-11.4,10.77S153.44,225.88,153.44,225.88Z" style="fill: rgb(255, 255, 255); stroke: rgb(38, 50, 56); stroke-miterlimit: 10; transform-origin: 243.11px 203.98px;" id="elu2l6hayvha" class="animable"></path><path d="M173.91,199.55s-5.88,9.64-8.47,11.76-8.46,3.76-9.17,5.87A45.46,45.46,0,0,0,155.1,224s-4.71-7.29-3.53-11.05,4.94-2.58,9.41-8.7S173.91,195.08,173.91,199.55Z" style="fill: rgb(38, 50, 56); stroke: rgb(38, 50, 56); stroke-miterlimit: 10; transform-origin: 162.645px 210.711px;" id="elwt7t58jukw" class="animable"></path><path d="M187.18,228.14s-1.91-.95-1.43-4.3,6.21-8.12,6.21-8.12" style="fill: none; stroke: rgb(38, 50, 56); stroke-miterlimit: 10; transform-origin: 188.816px 221.93px;" id="el84a61hxopkp" class="animable"></path><path d="M199.84,217.63s-4.28,2.92-2.39,6.69" style="fill: none; stroke: rgb(38, 50, 56); stroke-miterlimit: 10; transform-origin: 198.404px 220.975px;" id="elu2xyz1jh0c" class="animable"></path><path d="M210.1,224.61s-2.38-4.35-1.9-5.78a11.88,11.88,0,0,1,2.39-3.35" style="fill: none; stroke: rgb(38, 50, 56); stroke-miterlimit: 10; transform-origin: 209.363px 220.045px;" id="el0nq82e98n65" class="animable"></path><path d="M225.87,216s-5,1.91-5,3.82" style="fill: none; stroke: rgb(38, 50, 56); stroke-miterlimit: 10; transform-origin: 223.37px 217.91px;" id="ela5gqqaszqiv" class="animable"></path><path d="M249.28,216.44s-.54,4.57.24,6.69" style="fill: none; stroke: rgb(38, 50, 56); stroke-miterlimit: 10; transform-origin: 249.309px 219.785px;" id="elta1vuzf0kkc" class="animable"></path><path d="M264.81,215c.24-.71,3.15,3.6,3.34,5.5" style="fill: none; stroke: rgb(38, 50, 56); stroke-miterlimit: 10; transform-origin: 266.48px 217.711px;" id="elqta6t84jh2" class="animable"></path><path d="M279.14,211.42a32.82,32.82,0,0,1,1.67,6.21" style="fill: none; stroke: rgb(38, 50, 56); stroke-miterlimit: 10; transform-origin: 279.975px 214.525px;" id="el3rikkti033u" class="animable"></path><path d="M291.8,209a63.34,63.34,0,0,1,.95,7.89" style="fill: none; stroke: rgb(38, 50, 56); stroke-miterlimit: 10; transform-origin: 292.275px 212.945px;" id="el9960kupcn1h" class="animable"></path><path d="M302.31,207.84s2.38,4.3,1.43,6.21" style="fill: none; stroke: rgb(38, 50, 56); stroke-miterlimit: 10; transform-origin: 303.137px 210.945px;" id="elx4v3zbzkho" class="animable"></path><path d="M312.81,205s2.39,3.82,1.2,6.21" style="fill: none; stroke: rgb(38, 50, 56); stroke-miterlimit: 10; transform-origin: 313.576px 208.105px;" id="elw1umh1yd3tc" class="animable"></path><path d="M287.6,202.06c2-.95,4-1.86,4-1.86l2.62-1" style="fill: none; stroke: rgb(38, 50, 56); stroke-miterlimit: 10; transform-origin: 290.91px 200.63px;" id="elirrypnbnvdj" class="animable"></path><path d="M272.21,207.84l5.73-2.87a35.45,35.45,0,0,0,4.43-.52" style="fill: none; stroke: rgb(38, 50, 56); stroke-miterlimit: 10; transform-origin: 277.29px 206.145px;" id="elca2i832uigi" class="animable"></path><path d="M222.05,212.62c3.58.95,17.68,2.86,17.68,2.86a36.55,36.55,0,0,1,7.64-1.91c3.11-.24,9.79-.48,9.79-.48s7.65-2.62,8.84-3.1c.43-.17,1.35-.5,2.36-.85" style="fill: none; stroke: rgb(38, 50, 56); stroke-miterlimit: 10; transform-origin: 245.205px 212.31px;" id="el763uuw7u3xm" class="animable"></path><path d="M211.78,212.38a49.09,49.09,0,0,1,7.16-.2" style="fill: none; stroke: rgb(38, 50, 56); stroke-miterlimit: 10; transform-origin: 215.36px 212.255px;" id="elzx2ungcpoi" class="animable"></path><path d="M169.74,218.11c-3.34,2.15-4.77,4.06-4.77,4.78a5.31,5.31,0,0,0,.71,1.91" style="fill: none; stroke: rgb(38, 50, 56); stroke-miterlimit: 10; transform-origin: 167.355px 221.455px;" id="elwizh3gjwkee" class="animable"></path><path d="M186.46,199.48s-6.68,2.87-8.59,6.93a77.82,77.82,0,0,1-3.35,7.16,8.89,8.89,0,0,1-2.64,3.08" style="fill: none; stroke: rgb(38, 50, 56); stroke-miterlimit: 10; transform-origin: 179.17px 208.065px;" id="elsac7p5jx79" class="animable"></path><path d="M313.87,158.75s.25-9.07-2.26-10.83-12.09,1.51-12.09,1.51-8.56,1.76-11.08,1.76H278.37a74,74,0,0,0-10.58,1c-6.29,1-7.3.76-16.36,3.53s-5,.75-17.12,5.54-15.87,9.82-20.65,13.84S173.88,190,173.88,190s-7.31-2-15.61,4-8.06,5.29-10.08,7.3a47.86,47.86,0,0,1-4.78,4s-6,2.77-10.07,5-8.56,4.53-8.56,4.53l-4,4.28s-1,8.31.75,11.33,6,9.82,6,9.82,8.56,23.16,12.08,26.18,10.07,17.63,12.09,20.15,4.78,6.54,6.55,7.3,4.28,3,4,1.26-5.28-7.81-6-12.84-1.51-4.79-4.53-13.35-3.27-8.81-5.29-13.85-5.54-8.81-3.52-9.06,8.81,5,10.07,5,1-1.77,2.52-7.06.5-8.81.25-10.82-2.27-15.61-2-17.63,10.58-5.79,12.59-7.55,4.28-5.79,6.05-8.06,8-1.76,11.33-1.76,14.85-.5,20.89-3.27,10.83-5,14.36-6,9.31.25,13.34-3.27a44,44,0,0,1,9.57-6c1.76-1-3.53,6.54-2,7.3s7.55-2.27,11.33-3.78,10.82-6,13.09-5.79,8.06,1.26,10.57.25,13.85-2,15.36-4.28,4.28-7.8,2-9.31a21.09,21.09,0,0,0-5.29-2.77c-1-.26,22.66,2.51,25.18.75S313.87,158.75,313.87,158.75Z" style="fill: rgb(255, 255, 255); stroke: rgb(38, 50, 56); stroke-miterlimit: 10; transform-origin: 217.238px 221.598px;" id="elcyt9n5j5utg" class="animable"></path><path d="M246.77,172.11A172.23,172.23,0,0,1,258,156.23" style="fill: none; stroke: rgb(38, 50, 56); stroke-miterlimit: 10; transform-origin: 252.385px 164.17px;" id="el2rqlhv41vva" class="animable"></path><path d="M243.87,177.13c.46-.85.94-1.71,1.43-2.56" style="fill: none; stroke: rgb(38, 50, 56); stroke-miterlimit: 10; transform-origin: 244.585px 175.85px;" id="elofdrlf1v4d" class="animable"></path><path d="M274.34,155.47s-7.55,9.82-4.53,12.85,3.27,5.54,11.83,5.28" style="fill: none; stroke: rgb(38, 50, 56); stroke-miterlimit: 10; transform-origin: 275.368px 164.544px;" id="elovptb1hrqlq" class="animable"></path><line x1="270.06" y1="170.83" x2="264.77" y2="175.11" style="fill: none; stroke: rgb(38, 50, 56); stroke-miterlimit: 10; transform-origin: 267.415px 172.97px;" id="el5yytv7vk4g" class="animable"></line><path d="M172.62,192s2,.76.25,4.28-4,4.29-4,4.29.5,2.76-4,5.53" style="fill: none; stroke: rgb(38, 50, 56); stroke-miterlimit: 10; transform-origin: 169.229px 199.05px;" id="eljglcaff9yn7" class="animable"></path><path d="M236.82,165.8s-4.28,1.26-5.28,4.78-1.26,4.79-1.51,5.54-3.78,0-4,4.53,2.51,5,3.52,5" style="fill: none; stroke: rgb(38, 50, 56); stroke-miterlimit: 10; transform-origin: 231.419px 175.725px;" id="elczr44ifd2ha" class="animable"></path><path d="M152.45,203.3l1.79-1c4.53-2.52,5-6.55,8.81-8.06" style="fill: none; stroke: rgb(38, 50, 56); stroke-miterlimit: 10; transform-origin: 157.75px 198.77px;" id="elvn81vmo2n2i" class="animable"></path><path d="M128.18,226.88a17.1,17.1,0,0,1-.13-3.17c.25-4.53,3.27-5.79,3.27-5.79s1.51-4.79,5-5.79a22.41,22.41,0,0,1,5.54-1,36.92,36.92,0,0,1,4.28-4c.95-.68,1.9-1.29,3.29-2.1" style="fill: none; stroke: rgb(38, 50, 56); stroke-miterlimit: 10; transform-origin: 138.728px 215.955px;" id="elsviwe2kz5fb" class="animable"></path><path d="M134.35,247.63a25.21,25.21,0,0,1-5-7.81,9.91,9.91,0,0,1,.25-8,15.31,15.31,0,0,1-.87-2.4" style="fill: none; stroke: rgb(38, 50, 56); stroke-miterlimit: 10; transform-origin: 131.488px 238.525px;" id="el1mlpoy4hcach" class="animable"></path><path d="M286.93,161.27a7.77,7.77,0,0,1-5.29-4.54c-1.51-3.77-3.77-4.53-5.79-3.77" style="fill: none; stroke: rgb(38, 50, 56); stroke-miterlimit: 10; transform-origin: 281.39px 156.982px;" id="elb2dsfn0j5bq" class="animable"></path><path d="M381.4,311.28s-19-6.62-22.07-5.24,2.21,8,3.86,11.59,7.73,23.17,8.28,25.38,5,4.14,7.17,6.34,2.76,4.69,5.25,4.14,2.75-1.38,5.24-5-2.76-9.66-2.76-9.66,1.1-4.69-.55-7.73l-1.66-3a14.67,14.67,0,0,0,0-6.35,10.36,10.36,0,0,0-2.21-4.13S383.61,315.42,381.4,311.28Z" style="fill: #CA8A5F; stroke: rgb(38, 50, 56); stroke-miterlimit: 10; transform-origin: 374.094px 329.709px;" id="el9fsw3qnzmvs" class="animable"></path><path d="M308,304.11s0,1.38-3.59,3.86-6.62,3-4.41,5,4.41.82,8.28-3.59S311.6,300.24,308,304.11Z" style="fill: rgb(255, 255, 255); transform-origin: 305.1px 308.295px;" id="elnz9uloe3y0c" class="animable"></path><path d="M303.6,342.18s-4.69-.83-8,5.24,12.69-1.1,12.69-3S307.46,341.08,303.6,342.18Z" style="fill: rgb(255, 255, 255); transform-origin: 301.72px 345.805px;" id="eltukakgwvql8" class="animable"></path><path d="M266.63,328.66s-4.69,3.31-5.25,7.18.83,6.62,2.76,5.51.83-5.24,4.14-6.89,7.73-1.94,6.62-4.42S269.94,326.73,266.63,328.66Z" style="fill: rgb(255, 255, 255); transform-origin: 268.165px 334.596px;" id="eleofzuya59gd" class="animable"></path><path d="M247.86,308.52s-7.17-3-8.27-.83,6.89,1.11,6.34,3.31-4.14,0-2.48,3.87,5,1.1,6.07-1.38S249.24,308.52,247.86,308.52Z" style="fill: rgb(255, 255, 255); transform-origin: 244.696px 311.847px;" id="elvwnvi9x63l" class="animable"></path><path d="M210.89,319.56A5.78,5.78,0,0,0,204,322c-2.76,4.14.82,5.79,2.75,4.41s5.25-2.75,7.45-4.13S210.89,319.56,210.89,319.56Z" style="fill: rgb(255, 255, 255); transform-origin: 208.856px 323.055px;" id="ely7i6wnobds" class="animable"></path><path d="M220.83,323.42a13.8,13.8,0,0,1-3.32,5.24c-2.2,1.93-3,5.24,1.38,3.31S222.76,320.66,220.83,323.42Z" style="fill: rgb(255, 255, 255); transform-origin: 218.992px 327.735px;" id="el7ftccf2gpgt" class="animable"></path><path d="M181.1,260.24s-2.21,7.17-4.14,8.27-8.56,1.11-6.35-5S181.1,254.17,181.1,260.24Z" style="fill: rgb(255, 255, 255); transform-origin: 175.632px 263.033px;" id="elj125f6xycj" class="animable"></path><path d="M193.51,292.79s-6.9-7.17-8.55-3.86,3,6.35,7.17,6.62S195.17,294.73,193.51,292.79Z" style="fill: rgb(255, 255, 255); transform-origin: 189.813px 291.824px;" id="elk0n1ff3o22c" class="animable"></path><path d="M196.27,289.07a1.24,1.24,0,1,1-1.24-1.24A1.24,1.24,0,0,1,196.27,289.07Z" style="fill: rgb(255, 255, 255); transform-origin: 195.03px 289.07px;" id="elepcgfpfg8r" class="animable"></path><path d="M203.17,293.48a1.25,1.25,0,1,1-1.24-1.24A1.25,1.25,0,0,1,203.17,293.48Z" style="fill: rgb(255, 255, 255); transform-origin: 201.92px 293.49px;" id="el23wb4f8nf0r" class="animable"></path><path d="M197.79,291.69a1.38,1.38,0,1,1-1.38-1.38A1.38,1.38,0,0,1,197.79,291.69Z" style="fill: rgb(255, 255, 255); transform-origin: 196.41px 291.69px;" id="elknkqhwep9xs" class="animable"></path><path d="M207.31,290.45a1.52,1.52,0,1,1-1.52-1.52A1.52,1.52,0,0,1,207.31,290.45Z" style="fill: rgb(255, 255, 255); transform-origin: 205.79px 290.45px;" id="el7dscn2mc9v9" class="animable"></path><circle cx="208.55" cy="299.28" r="1.24" style="fill: rgb(255, 255, 255); transform-origin: 208.55px 299.28px;" id="eliwrgbcclbj" class="animable"></circle><circle cx="210.34" cy="295.55" r="1.1" style="fill: rgb(255, 255, 255); transform-origin: 210.34px 295.55px;" id="eljiwdw48vo6p" class="animable"></circle><path d="M180.81,317a2.05,2.05,0,1,1-2.05-2A2,2,0,0,1,180.81,317Z" style="fill: rgb(255, 255, 255); transform-origin: 178.761px 317.05px;" id="el13j36w27fy5" class="animable"></path><circle cx="182.06" cy="303.01" r="1.43" style="fill: rgb(255, 255, 255); transform-origin: 182.06px 303.01px;" id="el5xxi1eq22dp" class="animable"></circle><path d="M178.67,305.6a.63.63,0,1,1-.62-.62A.63.63,0,0,1,178.67,305.6Z" style="fill: rgb(255, 255, 255); transform-origin: 178.04px 305.61px;" id="elur9h404soal" class="animable"></path><circle cx="177.42" cy="289.1" r="0.89" style="fill: rgb(255, 255, 255); transform-origin: 177.42px 289.1px;" id="eldub63x0fj6s" class="animable"></circle><circle cx="181.61" cy="288.47" r="1.34" style="fill: rgb(255, 255, 255); transform-origin: 181.61px 288.47px;" id="elrskd94h5zuc" class="animable"></circle><path d="M178.67,287.22a1,1,0,1,1-1-1A1,1,0,0,1,178.67,287.22Z" style="fill: rgb(255, 255, 255); transform-origin: 177.67px 287.22px;" id="el86ooh1vr15n" class="animable"></path><path d="M166.36,272.86a1.25,1.25,0,1,1-1.25-1.25A1.25,1.25,0,0,1,166.36,272.86Z" style="fill: rgb(255, 255, 255); transform-origin: 165.11px 272.86px;" id="elozc2g0mdp4" class="animable"></path><circle cx="165.02" cy="280.62" r="1.52" style="fill: rgb(255, 255, 255); transform-origin: 165.02px 280.62px;" id="elvk45djobgva" class="animable"></circle><circle cx="167.34" cy="277.41" r="1.7" style="fill: rgb(255, 255, 255); transform-origin: 167.34px 277.41px;" id="elzeuufds8vz" class="animable"></circle><path d="M211.68,259.92a1,1,0,1,1-1-1A1,1,0,0,1,211.68,259.92Z" style="fill: rgb(255, 255, 255); transform-origin: 210.68px 259.92px;" id="ely058cn40bs9" class="animable"></path><path d="M215.25,263.58c0,.49-.84.89-1.87.89s-1.88-.4-1.88-.89.84-.89,1.88-.89S215.25,263.09,215.25,263.58Z" style="fill: rgb(255, 255, 255); transform-origin: 213.375px 263.58px;" id="elwx6jsentnz" class="animable"></path><path d="M160.47,247.43c0,.94-.48,1.7-1.07,1.7s-1.07-.76-1.07-1.7.48-1.69,1.07-1.69S160.47,246.49,160.47,247.43Z" style="fill: rgb(255, 255, 255); transform-origin: 159.4px 247.435px;" id="elfp3spzcor7r" class="animable"></path><path d="M162.08,248.32a1.16,1.16,0,1,0,1.16-1.16A1.16,1.16,0,0,0,162.08,248.32Z" style="fill: rgb(255, 255, 255); transform-origin: 163.24px 248.32px;" id="elc9cpi3jpik" class="animable"></path><path d="M165.82,246.36c0,.34.4.62.9.62s.89-.28.89-.62-.4-.62-.89-.62S165.82,246,165.82,246.36Z" style="fill: rgb(255, 255, 255); transform-origin: 166.715px 246.36px;" id="elcm0qbw12j2l" class="animable"></path><ellipse cx="170.37" cy="249.39" rx="0.98" ry="0.62" style="fill: rgb(255, 255, 255); transform-origin: 170.37px 249.39px;" id="elcdme8ux55zs" class="animable"></ellipse><ellipse cx="172.78" cy="252.96" rx="0.89" ry="0.98" style="fill: rgb(255, 255, 255); transform-origin: 172.78px 252.96px;" id="ellvvszpmnxe9" class="animable"></ellipse><ellipse cx="311.43" cy="331.21" rx="2.68" ry="1.43" style="fill: rgb(255, 255, 255); transform-origin: 311.43px 331.21px;" id="el5kmhfq1ydch" class="animable"></ellipse><path d="M365.14,357.62s2.14-6.78.71-9.64-4.28-1.25-5.71,1.07-1.6,2.86,0,1.61,2.86-3.39,3.93-2,.54,3.21,0,5.53-2,5.35-.71,4.81A4,4,0,0,0,365.14,357.62Z" style="fill: rgb(255, 255, 255); transform-origin: 362.673px 352.756px;" id="elye9no2hz70o" class="animable"></path><path d="M361.39,353.87a17.24,17.24,0,0,1-1.42,4.64c-1.07,2.14,0,2.68.71,1.78S363.18,350.3,361.39,353.87Z" style="fill: rgb(255, 255, 255); transform-origin: 360.839px 356.875px;" id="elcuru5lapsbe" class="animable"></path><path d="M335.88,349.59s-7.5-2.86-5.71-1.07S336.05,350.48,335.88,349.59Z" style="fill: rgb(255, 255, 255); transform-origin: 332.89px 349.023px;" id="el8u5kda9ha2" class="animable"></path><path d="M339.09,353.33s-4.11-1.6-3.93,2.32.36,3.22-.53,5.18-2.14,3.57-2.5,5,3.21-3,4.46-5-.54-5.18.54-6.25S339.45,355.12,339.09,353.33Z" style="fill: rgb(255, 255, 255); transform-origin: 335.629px 359.558px;" id="elfby608d1i6f" class="animable"></path><ellipse cx="335.16" cy="301.23" rx="2.14" ry="1.78" style="fill: rgb(255, 255, 255); transform-origin: 335.16px 301.23px;" id="elj8wc77hgkij" class="animable"></ellipse><path d="M206.22,245.52c3.57-5.09,11-11.4,25.22-8" style="fill: none; stroke: rgb(38, 50, 56); stroke-miterlimit: 10; transform-origin: 218.83px 241.039px;" id="el6bbemrzp6lw" class="animable"></path><path d="M203.39,251a18.9,18.9,0,0,1,1.49-3.35" style="fill: none; stroke: rgb(38, 50, 56); stroke-miterlimit: 10; transform-origin: 204.135px 249.325px;" id="elw4hiip51ff" class="animable"></path><path d="M175.09,241.08s10.28-7.66,22.95,5.1" style="fill: none; stroke: rgb(38, 50, 56); stroke-miterlimit: 10; transform-origin: 186.565px 242.49px;" id="eltruysffu1m" class="animable"></path><path d="M202.72,279.54c-3.57,5.59-8.25,5.39-8.25,5.39" style="fill: none; stroke: rgb(38, 50, 56); stroke-miterlimit: 10; transform-origin: 198.595px 282.235px;" id="el8amkpzqxmdp" class="animable"></path><path d="M177.9,252.81s12.74-3.83,19.88,1.53,9.95,14,6.38,22.43" style="fill: none; stroke: rgb(38, 50, 56); stroke-miterlimit: 10; transform-origin: 191.803px 264.127px;" id="elmecqynypyv9" class="animable"></path><path d="M168.72,259.69s-5.1,12,4.33,22.18" style="fill: none; stroke: rgb(38, 50, 56); stroke-miterlimit: 10; transform-origin: 170.197px 270.78px;" id="elie8hn14199m" class="animable"></path><path d="M189.62,296.92s11,1,13.52,11" style="fill: none; stroke: rgb(38, 50, 56); stroke-miterlimit: 10; transform-origin: 196.38px 302.42px;" id="elvsoit97fldj" class="animable"></path><path d="M200.33,326s.51-10.71,9.44-15" style="fill: none; stroke: rgb(38, 50, 56); stroke-miterlimit: 10; transform-origin: 205.05px 318.5px;" id="eliwxpiv1jkpn" class="animable"></path><path d="M218,309.11a18.35,18.35,0,0,0,6,.55c7.14-.51,11.48-2.29,12.24-10.7" style="fill: none; stroke: rgb(38, 50, 56); stroke-miterlimit: 10; transform-origin: 227.12px 304.335px;" id="el9hzwjcwkhb" class="animable"></path><path d="M212.83,306.6a11.54,11.54,0,0,0,2.86,1.69" style="fill: none; stroke: rgb(38, 50, 56); stroke-miterlimit: 10; transform-origin: 214.26px 307.445px;" id="elj10pkbrtvnk" class="animable"></path><path d="M259.06,302.06a18.13,18.13,0,0,0,6-4.12" style="fill: none; stroke: rgb(38, 50, 56); stroke-miterlimit: 10; transform-origin: 262.06px 300px;" id="elvqetbopjmm" class="animable"></path><path d="M230.93,286.72s3.31,12,15,15.81a18.75,18.75,0,0,0,8.73.79" style="fill: none; stroke: rgb(38, 50, 56); stroke-miterlimit: 10; transform-origin: 242.795px 295.119px;" id="elz0rpttawao" class="animable"></path><path d="M289.81,309.19A15.32,15.32,0,0,0,299,297.68" style="fill: none; stroke: rgb(38, 50, 56); stroke-miterlimit: 10; transform-origin: 294.405px 303.435px;" id="el4irnkevme84" class="animable"></path><path d="M266.37,303.29s3.06,8.67,16.06,7.65a25.76,25.76,0,0,0,4-.63" style="fill: none; stroke: rgb(38, 50, 56); stroke-miterlimit: 10; transform-origin: 276.4px 307.157px;" id="elaaiypzv5bku" class="animable"></path><path d="M266.62,323.94s15.56-5.35,25.75,8.16" style="fill: none; stroke: rgb(38, 50, 56); stroke-miterlimit: 10; transform-origin: 279.495px 327.497px;" id="elhxuqvpk7nt6" class="animable"></path><path d="M329,309.83a22,22,0,0,0-1.47-7.56" style="fill: none; stroke: rgb(38, 50, 56); stroke-miterlimit: 10; transform-origin: 328.265px 306.05px;" id="el8xw6q8o90k6" class="animable"></path><path d="M298.49,321.9s8.42,6.12,18.87,3.57a14.68,14.68,0,0,0,11.33-11.87" style="fill: none; stroke: rgb(38, 50, 56); stroke-miterlimit: 10; transform-origin: 313.59px 319.846px;" id="elve89m2p7b6" class="animable"></path><path d="M311.71,232.93c1.34.7,12.82-9.22,24.65,3.92" style="fill: none; stroke: rgb(38, 50, 56); stroke-miterlimit: 10; transform-origin: 324.035px 233.422px;" id="elnvce6o515pp" class="animable"></path><path d="M355.27,292.94a22,22,0,0,1,2.38,4.49c2.8,7.14,0,16.31-10.71,19.37" style="fill: none; stroke: rgb(38, 50, 56); stroke-miterlimit: 10; transform-origin: 352.803px 304.87px;" id="ellcbcuegnkgt" class="animable"></path><path d="M350,288a14.36,14.36,0,0,1,4.29,3.67" style="fill: none; stroke: rgb(38, 50, 56); stroke-miterlimit: 10; transform-origin: 352.145px 289.835px;" id="ely9gdqj9xpp" class="animable"></path><path d="M340.82,322.41s-3.57,6.63-1.79,12.5,8.42,11.47,16.83,10.7a11.81,11.81,0,0,0,11-10.45" style="fill: none; stroke: rgb(38, 50, 56); stroke-miterlimit: 10; transform-origin: 352.696px 334.046px;" id="el7mkv83vtkrx" class="animable"></path><path d="M306.91,326s-5.87,5.1,0,13.77" style="fill: none; stroke: rgb(38, 50, 56); stroke-miterlimit: 10; transform-origin: 305.606px 332.885px;" id="elsocvmyr3ooe" class="animable"></path><path d="M322.69,346.65a18.21,18.21,0,0,1,1.55,2.79c3.83,8.41-.25,17.08-.25,17.08" style="fill: none; stroke: rgb(38, 50, 56); stroke-miterlimit: 10; transform-origin: 324.285px 356.585px;" id="elq6khu47q8qp" class="animable"></path><path d="M313.54,340.77a11.52,11.52,0,0,1,6.08,2.56" style="fill: none; stroke: rgb(38, 50, 56); stroke-miterlimit: 10; transform-origin: 316.58px 342.05px;" id="eld93ctgea02g" class="animable"></path></g><defs>     <filter id="active" height="200%">         <feMorphology in="SourceAlpha" result="DILATED" operator="dilate" radius="2"></feMorphology>                <feFlood flood-color="#32DFEC" flood-opacity="1" result="PINK"></feFlood>        <feComposite in="PINK" in2="DILATED" operator="in" result="OUTLINE"></feComposite>        <feMerge>            <feMergeNode in="OUTLINE"></feMergeNode>            <feMergeNode in="SourceGraphic"></feMergeNode>        </feMerge>    </filter>    <filter id="hover" height="200%">        <feMorphology in="SourceAlpha" result="DILATED" operator="dilate" radius="2"></feMorphology>                <feFlood flood-color="#ff0000" flood-opacity="0.5" result="PINK"></feFlood>        <feComposite in="PINK" in2="DILATED" operator="in" result="OUTLINE"></feComposite>        <feMerge>            <feMergeNode in="OUTLINE"></feMergeNode>            <feMergeNode in="SourceGraphic"></feMergeNode>        </feMerge>            <feColorMatrix type="matrix" values="0   0   0   0   0                0   1   0   0   0                0   0   0   0   0                0   0   0   1   0 "></feColorMatrix>    </filter></defs></svg>